<svg width="800" height="301" viewBox="0 0 800 301" fill="none" xmlns="http://www.w3.org/2000/svg">
<g clip-path="url(#clip0_4_5)">
<rect x="0.5" y="1.5" width="799" height="299" fill="white" stroke="black"/>
<path d="M106.329 151.72H107.012C109.898 151.72 111.341 153.127 111.341 155.941V162.102C112.632 159.212 114.682 156.626 117.492 154.344C120.378 152.062 123.454 150.921 126.719 150.921C129.985 150.921 132.453 151.568 134.123 152.861C135.87 154.154 136.743 155.751 136.743 157.653C136.743 159.478 135.946 160.923 134.351 161.988C131.997 160.011 129.491 159.022 126.833 159.022C122.125 159.022 118.403 160.961 115.67 164.841C112.936 168.644 111.569 173.436 111.569 179.217V203.633C111.569 205.154 111.227 206.257 110.543 206.942C109.86 207.626 108.759 207.969 107.24 207.969H106.329C104.81 207.969 103.709 207.626 103.025 206.942C102.342 206.257 102 205.154 102 203.633V155.941C102 153.127 103.443 151.72 106.329 151.72Z" fill="black"/>
<path d="M129.368 214.815H150.555V235.352H143.037V221.66H129.368V214.815Z" fill="black"/>
<path d="M129.59 243.338H150.778V263.876H143.26V250.184H129.59V243.338Z" fill="black"/>
<path d="M131.063 268.325C133.189 268.325 135.05 268.706 136.645 269.466C138.239 270.227 139.53 271.33 140.518 272.775C141.429 271.33 142.682 270.227 144.277 269.466C145.872 268.706 147.732 268.325 149.858 268.325C153.58 268.325 156.579 269.352 158.858 271.406C161.136 273.536 162.275 276.502 162.275 280.305C162.275 284.109 161.136 287.075 158.858 289.205C156.579 291.335 153.58 292.399 149.858 292.399C147.808 292.399 145.985 291.981 144.391 291.144C142.796 290.384 141.505 289.281 140.518 287.836C139.53 289.281 138.239 290.384 136.645 291.144C134.974 291.981 133.113 292.399 131.063 292.399C127.342 292.399 124.342 291.335 122.064 289.205C119.786 287.075 118.646 284.109 118.646 280.305C118.646 276.502 119.786 273.536 122.064 271.406C124.342 269.352 127.342 268.325 131.063 268.325ZM143.479 280.305C143.479 282.283 144.049 283.842 145.188 284.983C146.403 286.124 147.96 286.695 149.858 286.695C151.909 286.695 153.466 286.124 154.529 284.983C155.668 283.842 156.238 282.283 156.238 280.305C156.238 278.328 155.63 276.768 154.415 275.627C153.2 274.486 151.681 273.916 149.858 273.916C148.036 273.916 146.517 274.486 145.302 275.627C144.087 276.768 143.479 278.328 143.479 280.305ZM137.442 280.305C137.442 278.328 136.834 276.768 135.619 275.627C134.404 274.486 132.885 273.916 131.063 273.916C129.24 273.916 127.721 274.486 126.506 275.627C125.291 276.768 124.684 278.328 124.684 280.305C124.684 282.283 125.253 283.842 126.392 284.983C127.456 286.124 129.012 286.695 131.063 286.695C132.961 286.695 134.518 286.124 135.733 284.983C136.872 283.842 137.442 282.283 137.442 280.305Z" fill="black"/>
<path d="M153.726 311.567H127.754V304.722H153.726V311.567Z" fill="black"/>
<path d="M131.397 319.668C133.523 319.668 135.384 320.049 136.978 320.809C138.573 321.57 139.864 322.673 140.851 324.118C141.763 322.673 143.016 321.57 144.61 320.809C146.205 320.049 148.066 319.668 150.192 319.668C153.913 319.668 156.913 320.695 159.191 322.749C161.47 324.879 162.609 327.845 162.609 331.648C162.609 335.451 161.47 338.418 159.191 340.548C156.913 342.678 153.913 343.742 150.192 343.742C148.142 343.742 146.319 343.324 144.724 342.487C143.13 341.727 141.839 340.624 140.851 339.179C139.864 340.624 138.573 341.727 136.978 342.487C135.308 343.324 133.447 343.742 131.397 343.742C127.675 343.742 124.676 342.678 122.397 340.548C120.119 338.418 118.98 335.451 118.98 331.648C118.98 327.845 120.119 324.879 122.397 322.749C124.676 320.695 127.675 319.668 131.397 319.668ZM143.813 331.648C143.813 333.626 144.383 335.185 145.522 336.326C146.737 337.467 148.294 338.038 150.192 338.038C152.243 338.038 153.799 337.467 154.863 336.326C156.002 335.185 156.571 333.626 156.571 331.648C156.571 329.671 155.964 328.111 154.749 326.97C153.534 325.829 152.015 325.259 150.192 325.259C148.37 325.259 146.851 325.829 145.636 326.97C144.421 328.111 143.813 329.671 143.813 331.648ZM137.776 331.648C137.776 329.671 137.168 328.111 135.953 326.97C134.738 325.829 133.219 325.259 131.397 325.259C129.574 325.259 128.055 325.829 126.84 326.97C125.625 328.111 125.017 329.671 125.017 331.648C125.017 333.626 125.587 335.185 126.726 336.326C127.789 337.467 129.346 338.038 131.397 338.038C133.295 338.038 134.852 337.467 136.067 336.326C137.206 335.185 137.776 333.626 137.776 331.648Z" fill="black"/>
<path d="M131.05 355.494H143.58V348.078H151.098V369.756H143.58V362.34H131.05V355.494Z" fill="black"/>
<path d="M148.391 138.713C146.948 138.713 145.543 138.447 144.176 137.914C142.809 137.382 141.48 136.773 140.189 136.089L135.974 143.048L130.848 139.968L134.949 133.236C134.266 132.932 133.62 132.704 133.013 132.552C132.329 132.323 131.684 132.209 131.076 132.209C129.254 132.209 127.887 132.78 126.975 133.921C126.064 134.986 125.343 136.621 124.811 138.827H119.001C119.305 135.784 119.989 133.198 121.052 131.068C122.115 128.863 123.558 127.189 125.381 126.048C127.127 124.831 129.178 124.223 131.532 124.223C132.823 124.223 134.114 124.451 135.405 124.907C136.62 125.288 137.797 125.782 138.936 126.39L142.809 119.887L147.935 122.968L144.176 129.357C145.012 129.737 145.809 130.08 146.568 130.384C147.328 130.612 148.087 130.726 148.847 130.726C150.593 130.726 151.922 130.194 152.834 129.129C153.821 127.988 154.58 126.314 155.112 124.109H160.807C160.504 127.075 159.82 129.661 158.757 131.867C157.694 133.997 156.289 135.67 154.542 136.887C152.872 138.104 150.821 138.713 148.391 138.713Z" fill="black"/>
<path d="M161.141 92.1618C160.685 96.5735 159.394 100.11 157.268 102.773C155.142 105.435 152.294 106.766 148.725 106.766C147.13 106.766 145.573 106.462 144.054 105.853C142.535 105.169 141.055 104.408 139.612 103.571C138.093 102.659 136.688 101.898 135.397 101.289C134.03 100.605 132.701 100.263 131.41 100.263C129.587 100.263 128.22 100.833 127.309 101.974C126.398 103.039 125.676 104.674 125.145 106.88H119.335C119.791 102.392 121.12 98.8554 123.322 96.2693C125.449 93.6071 128.296 92.2759 131.866 92.2759C133.536 92.2759 135.169 92.6182 136.764 93.3028C138.283 93.9113 139.764 94.6719 141.206 95.5847C142.649 96.4214 144.016 97.182 145.307 97.8666C146.674 98.4751 147.965 98.7794 149.18 98.7794C150.927 98.7794 152.256 98.2469 153.167 97.182C154.155 96.0411 154.914 94.3677 155.446 92.1618H161.141ZM140.295 108.021C141.738 108.021 142.991 108.477 144.054 109.39C145.117 110.227 145.649 111.634 145.649 113.612C145.649 115.513 145.117 116.959 144.054 117.947C142.991 118.86 141.738 119.317 140.295 119.317C138.852 119.317 137.599 118.86 136.536 117.947C135.473 116.959 134.941 115.513 134.941 113.612C134.941 111.634 135.473 110.227 136.536 109.39C137.599 108.477 138.852 108.021 140.295 108.021ZM140.295 79.7254C141.738 79.7254 142.991 80.1818 144.054 81.0946C145.117 81.9313 145.649 83.3385 145.649 85.3161C145.649 87.2177 145.117 88.6629 144.054 89.6517C142.991 90.5645 141.738 91.0209 140.295 91.0209C138.852 91.0209 137.637 90.5645 136.65 89.6517C135.587 88.6629 135.055 87.2177 135.055 85.3161C135.055 83.3385 135.587 81.9313 136.65 81.0946C137.637 80.1818 138.852 79.7254 140.295 79.7254Z" fill="black"/>
<path d="M144.746 180.015C144.746 170.507 147.404 163.243 152.72 158.223C158.036 153.203 164.149 150.693 171.06 150.693C177.97 150.693 183.438 152.48 187.463 156.055C191.488 159.554 193.5 163.928 193.5 169.176C193.5 174.425 191.412 178.532 187.235 181.499C183.134 184.389 177.818 185.834 171.287 185.834C164.756 185.834 158.871 184.807 153.631 182.754C153.631 188.306 155.529 192.794 159.327 196.217C163.124 199.564 167.756 201.237 173.224 201.237C181.729 201.237 187.045 198.613 189.172 193.365C190.463 193.365 191.564 193.745 192.475 194.505C193.386 195.19 193.842 196.217 193.842 197.586C193.842 200.248 191.868 202.796 187.919 205.23C184.046 207.665 179.109 208.882 173.11 208.882C165.06 208.882 158.301 206.448 152.834 201.579C147.442 196.711 144.746 189.523 144.746 180.015ZM184.843 168.834C184.843 165.868 183.552 163.357 180.97 161.304C178.464 159.25 174.971 158.223 170.49 158.223C166.085 158.223 162.212 160.011 158.871 163.586C155.529 167.161 153.821 171.192 153.745 175.68C159.213 177.505 164.642 178.418 170.034 178.418C179.907 178.418 184.843 175.223 184.843 168.834Z" fill="black"/>
<path d="M218.863 232.842H178.31V213.445H185.828V225.996H211.345V213.445H218.863V232.842Z" fill="black"/>
<path d="M187.765 245.05L192.549 240.258L198.359 245.963L203.94 240.372L209.294 245.734L203.712 251.325L209.408 257.144L204.624 261.936L198.814 256.231L193.232 261.822L187.879 256.459L193.46 250.869L187.765 245.05Z" fill="black"/>
<path d="M203.365 263.876V282.587H194.252V263.876H203.365Z" fill="black"/>
<path d="M224.548 299.702H173.515V292.399H224.548V299.702Z" fill="black"/>
<path d="M204.266 303.809C205.177 305.482 206.468 307.346 208.139 309.4C209.886 311.529 211.67 313.583 213.493 315.561C215.391 317.615 217.062 319.364 218.505 320.809V322.064H211.442C209.468 320.847 207.418 319.326 205.291 317.5C203.165 315.751 201.076 313.849 199.026 311.796C196.976 313.849 194.925 315.751 192.875 317.5C190.824 319.25 188.812 320.771 186.837 322.064H180.003V320.809C181.445 319.288 183.078 317.538 184.901 315.561C186.647 313.583 188.356 311.529 190.027 309.4C191.698 307.346 193.027 305.482 194.014 303.809H204.266Z" fill="black"/>
<path d="M188.655 330.621L193.439 325.829L199.248 331.534L204.83 325.944L210.184 331.306L204.602 336.897L210.298 342.716L205.514 347.508L199.704 341.803L194.122 347.393L188.769 342.031L194.35 336.44L188.655 330.621Z" fill="black"/>
<path d="M223.39 375.917H176.116V368.615H223.39V375.917ZM223.39 360.857H176.116V353.555H223.39V360.857Z" fill="black"/>
<path d="M179.073 394.401C179.3 392.119 179.756 390.065 180.44 388.24C181.047 386.49 181.882 384.969 182.946 383.676C184.009 382.459 185.262 381.508 186.705 380.823C188.148 380.139 189.78 379.797 191.603 379.797C193.274 379.797 194.906 380.101 196.501 380.709C198.02 381.394 199.501 382.155 200.944 382.991C202.387 383.904 203.754 384.665 205.045 385.273C206.412 385.958 207.703 386.3 208.918 386.3C210.664 386.3 211.993 385.73 212.905 384.589C213.892 383.524 214.651 381.888 215.183 379.682H220.879C220.423 384.094 219.132 387.631 217.006 390.293C214.879 392.956 212.031 394.287 208.462 394.287C206.867 394.287 205.31 393.944 203.792 393.26C202.273 392.651 200.792 391.891 199.349 390.978C197.83 390.141 196.425 389.381 195.134 388.696C193.767 388.088 192.438 387.783 191.147 387.783C189.325 387.783 187.958 388.316 187.046 389.381C186.135 390.522 185.414 392.195 184.882 394.401H179.073Z" fill="black"/>
<path d="M217.228 404.898V412.998H183.396V404.898H217.228Z" fill="black"/>
<path d="M224.171 438.67H176.898V431.368H224.171V438.67ZM224.171 423.609H176.898V416.307H224.171V423.609Z" fill="black"/>
<path d="M205.368 440.724V459.435H196.255V440.724H205.368Z" fill="black"/>
<path d="M197.275 482.711V471.301H189.073V464.455H212.995V471.301H204.793V482.711H197.275Z" fill="black"/>
<path d="M219.432 123.88C220.951 123.88 222.28 124.413 223.419 125.478C224.634 126.467 225.242 128.064 225.242 130.27C225.242 132.4 224.634 133.997 223.419 135.062C222.28 136.127 220.951 136.659 219.432 136.659C217.762 136.659 216.357 136.127 215.218 135.062C214.078 133.997 213.509 132.4 213.509 130.27C213.509 128.064 214.078 126.467 215.218 125.478C216.357 124.413 217.762 123.88 219.432 123.88Z" fill="black"/>
<path d="M230.19 513.745C222.824 513.745 216.217 512.946 210.369 511.349C204.446 509.751 199.434 507.355 195.333 504.161C191.156 500.966 188.004 497.011 185.878 492.295H193.852C195.674 495.033 198.181 497.391 201.37 499.369C204.56 501.346 208.547 502.868 213.331 503.932C218.039 504.997 223.621 505.53 230.076 505.53C235.468 505.53 240.48 505.073 245.113 504.161C249.745 503.248 253.808 501.803 257.301 499.825C260.87 497.847 263.68 495.337 265.731 492.295H273.705C269.832 499.901 264.06 505.378 256.39 508.725C248.796 512.071 240.062 513.745 230.19 513.745Z" fill="black"/>
<path d="M231.393 145.787C238.836 145.787 244.341 147.422 247.911 150.693C251.48 153.964 253.264 159.174 253.264 166.324V207.969H245.974L244.038 199.298H243.582C241.835 201.503 240.013 203.367 238.114 204.888C236.291 206.333 234.165 207.398 231.735 208.083C229.381 208.767 226.495 209.11 223.078 209.11C219.432 209.11 216.129 208.463 213.167 207.17C210.281 205.877 208.003 203.899 206.332 201.237C204.662 198.499 203.826 195.076 203.826 190.969C203.826 184.883 206.219 180.206 211.003 176.935C215.787 173.588 223.154 171.762 233.102 171.458L243.468 171.116V167.465C243.468 162.369 242.367 158.832 240.164 156.854C237.962 154.876 234.849 153.888 230.824 153.888C227.634 153.888 224.596 154.382 221.711 155.371C218.825 156.284 216.129 157.348 213.623 158.565L210.547 151.035C213.205 149.59 216.357 148.373 220.002 147.384C223.647 146.319 227.444 145.787 231.393 145.787ZM234.355 178.418C226.761 178.722 221.483 179.939 218.521 182.069C215.635 184.199 214.192 187.203 214.192 191.083C214.192 194.506 215.218 197.016 217.268 198.613C219.394 200.21 222.09 201.009 225.356 201.009C230.52 201.009 234.811 199.602 238.228 196.787C241.645 193.897 243.354 189.485 243.354 183.552V178.076L234.355 178.418ZM245.518 221.204C245.518 222.877 245.974 224.132 246.885 224.969C247.797 225.882 249.05 226.338 250.644 226.338C251.935 226.338 252.999 226.224 253.834 225.996C254.745 225.844 255.505 225.73 256.112 225.654V232.043C255.049 232.347 253.986 232.575 252.923 232.727C251.86 232.956 250.569 233.07 249.05 233.07C246.392 233.07 244.189 232.651 242.443 231.815C240.696 230.978 239.405 229.723 238.57 228.05C237.734 226.452 237.317 224.551 237.317 222.345C237.317 220.139 237.848 218.009 238.911 215.955C240.051 213.902 241.418 212.038 243.012 210.365C244.683 208.691 246.278 207.322 247.797 206.257L253.264 207.969C250.682 210.403 248.746 212.609 247.455 214.586C246.164 216.64 245.518 218.846 245.518 221.204Z" fill="black"/>
<path d="M229.273 262.164C230.033 260.719 230.906 258.779 231.893 256.345C232.881 253.911 233.83 251.439 234.741 248.929C235.728 246.419 236.488 244.289 237.019 242.54H244.765C245.221 244.289 245.867 246.419 246.702 248.929C247.537 251.439 248.449 253.911 249.436 256.345C250.423 258.779 251.334 260.719 252.17 262.164V263.533H246.36C245.373 262.164 244.348 260.225 243.285 257.714C242.297 255.204 241.424 252.884 240.665 250.755C239.829 252.884 238.918 255.166 237.931 257.6C237.019 260.034 236.07 262.012 235.083 263.533H229.273V262.164ZM210.25 241.056C211.769 241.817 213.553 242.692 215.604 243.681C217.578 244.67 219.667 245.62 221.869 246.533C223.995 247.446 225.932 248.168 227.679 248.701V256.459C225.932 256.916 223.995 257.562 221.869 258.399C219.667 259.312 217.578 260.225 215.604 261.137C213.553 262.126 211.769 263.039 210.25 263.876H208.997V258.057C210.364 257.144 211.921 256.231 213.667 255.318C215.414 254.406 217.351 253.455 219.477 252.466C217.351 251.401 215.452 250.412 213.781 249.5C212.111 248.663 210.516 247.75 208.997 246.761V241.056H210.25Z" fill="black"/>
<path d="M251.123 289.889H210.57V270.493H218.089V283.044H243.605V270.493H251.123V289.889Z" fill="black"/>
<path d="M248.503 293.654C248.275 296.697 247.402 299.359 245.883 301.641C244.44 303.923 242.428 305.711 239.846 307.004C237.264 308.297 234.15 308.943 230.505 308.943C224.885 308.943 220.671 307.536 217.861 304.722C214.975 301.983 213.38 298.294 213.076 293.654H219.228C219.456 295.708 220.063 297.229 221.05 298.218C221.962 299.283 223.253 299.968 224.923 300.272C226.518 300.652 228.455 300.842 230.733 300.842C232.707 300.842 234.492 300.652 236.087 300.272C237.757 299.892 239.124 299.169 240.188 298.104C241.327 297.115 242.01 295.632 242.238 293.654H248.503Z" fill="black"/>
<path d="M220.248 319.212L225.032 314.42L230.841 320.125L236.423 314.534L241.777 319.896L236.195 325.487L241.891 331.306L237.107 336.098L231.297 330.393L225.715 335.984L220.361 330.621L225.943 325.031L220.248 319.212Z" fill="black"/>
<path d="M211.015 338.95H251.568V358.347H244.05V345.796H218.534V358.347H211.015V338.95Z" fill="black"/>
<path d="M227.758 383.676V369.984H221.037L231.517 359.145L241.997 369.984H235.276V383.676H227.758Z" fill="black"/>
<path d="M231.965 390.75C235.762 390.75 238.913 391.358 241.419 392.575C243.925 393.868 245.824 395.656 247.115 397.938C248.482 400.22 249.241 402.92 249.393 406.039H243.242C243.014 403.909 242.407 402.349 241.419 401.361C240.508 400.372 239.255 399.687 237.66 399.307C236.065 399.003 234.091 398.851 231.737 398.851C229.762 398.851 227.978 399.041 226.383 399.421C224.712 399.801 223.345 400.486 222.282 401.475C221.219 402.54 220.535 404.061 220.232 406.039H213.966C214.27 402.996 215.143 400.334 216.586 398.052C218.029 395.77 220.042 393.982 222.624 392.689C225.206 391.396 228.319 390.75 231.965 390.75Z" fill="black"/>
<path d="M210.999 428.629C211.227 426.348 211.683 424.294 212.366 422.468C212.974 420.719 213.809 419.198 214.872 417.905C215.936 416.687 217.189 415.737 218.631 415.052C220.074 414.368 221.707 414.025 223.53 414.025C225.2 414.025 226.833 414.329 228.428 414.938C229.947 415.623 231.428 416.383 232.871 417.22C234.313 418.133 235.68 418.893 236.971 419.502C238.338 420.186 239.629 420.529 240.844 420.529C242.591 420.529 243.92 419.958 244.831 418.817C245.819 417.752 246.578 416.117 247.11 413.911H252.805C252.35 418.323 251.059 421.86 248.932 424.522C246.806 427.184 243.958 428.515 240.389 428.515C238.794 428.515 237.237 428.173 235.718 427.489C234.2 426.88 232.719 426.119 231.276 425.207C229.757 424.37 228.352 423.609 227.061 422.925C225.694 422.316 224.365 422.012 223.074 422.012C221.251 422.012 219.884 422.544 218.973 423.609C218.062 424.75 217.34 426.424 216.809 428.629H210.999Z" fill="black"/>
<path d="M235.941 435.932V447.341H244.143V454.187H220.221V447.341H228.423V435.932H235.941Z" fill="black"/>
<path d="M232.863 458.294C233.698 459.968 234.723 461.831 235.938 463.885C237.229 466.015 238.558 468.068 239.925 470.046C241.368 472.024 242.659 473.735 243.798 475.18V476.55H237.077C235.786 475.485 234.343 474.192 232.749 472.67C231.154 471.225 229.597 469.666 228.078 467.992C226.483 466.395 225.078 464.836 223.863 463.315C222.572 461.793 221.585 460.5 220.902 459.435V458.294H232.863Z" fill="black"/>
<path d="M222.033 482.939H243.221V503.476H235.702V489.785H222.033V482.939Z" fill="black"/>
<path d="M223.506 507.926C225.632 507.926 227.493 508.306 229.087 509.067C230.682 509.827 231.973 510.93 232.96 512.376C233.872 510.93 235.125 509.827 236.72 509.067C238.314 508.306 240.175 507.926 242.301 507.926C246.022 507.926 249.022 508.953 251.3 511.006C253.579 513.136 254.718 516.103 254.718 519.906C254.718 523.709 253.579 526.676 251.3 528.805C249.022 530.935 246.022 532 242.301 532C240.251 532 238.428 531.582 236.833 530.745C235.239 529.984 233.948 528.881 232.96 527.436C231.973 528.881 230.682 529.984 229.087 530.745C227.417 531.582 225.556 532 223.506 532C219.785 532 216.785 530.935 214.507 528.805C212.228 526.676 211.089 523.709 211.089 519.906C211.089 516.103 212.228 513.136 214.507 511.006C216.785 508.953 219.785 507.926 223.506 507.926ZM235.922 519.906C235.922 521.884 236.492 523.443 237.631 524.584C238.846 525.725 240.403 526.295 242.301 526.295C244.352 526.295 245.908 525.725 246.972 524.584C248.111 523.443 248.68 521.884 248.68 519.906C248.68 517.928 248.073 516.369 246.858 515.228C245.643 514.087 244.124 513.516 242.301 513.516C240.479 513.516 238.96 514.087 237.745 515.228C236.53 516.369 235.922 517.928 235.922 519.906ZM229.885 519.906C229.885 517.928 229.277 516.369 228.062 515.228C226.847 514.087 225.328 513.516 223.506 513.516C221.683 513.516 220.164 514.087 218.949 515.228C217.734 516.369 217.127 517.928 217.127 519.906C217.127 521.884 217.696 523.443 218.835 524.584C219.898 525.725 221.455 526.295 223.506 526.295C225.404 526.295 226.961 525.725 228.176 524.584C229.315 523.443 229.885 521.884 229.885 519.906Z" fill="black"/>
<path d="M247.425 121.713C246.741 122.777 245.754 124.071 244.463 125.592C243.172 127.113 241.767 128.71 240.248 130.384C238.653 131.981 237.097 133.54 235.578 135.062C233.983 136.507 232.502 137.762 231.135 138.827H224.528V137.458C225.667 136.013 226.92 134.301 228.287 132.323C229.578 130.346 230.869 128.33 232.16 126.276C233.451 124.147 234.515 122.245 235.35 120.572H247.425V121.713Z" fill="black"/>
<path d="M308.746 101.175C308.139 104.598 306.924 107.375 305.101 109.504C303.354 111.634 301.076 113.231 298.266 114.296C295.532 115.285 292.343 115.78 288.698 115.78C284.369 115.78 280.23 115.437 276.281 114.753C272.408 114.068 268.573 113.27 264.776 112.357C260.979 111.444 257.144 110.645 253.271 109.961C249.322 109.276 245.183 108.934 240.854 108.934C237.817 108.934 235.31 109.238 233.336 109.847C231.361 110.379 229.881 111.178 228.893 112.243C227.83 113.231 227.109 114.448 226.729 115.894H220.919C221.527 112.471 222.742 109.695 224.565 107.565C226.311 105.359 228.59 103.762 231.399 102.773C234.209 101.784 237.437 101.289 241.082 101.289C245.335 101.289 249.398 101.632 253.271 102.316C257.144 103.001 260.979 103.8 264.776 104.712C268.573 105.625 272.446 106.424 276.395 107.108C280.344 107.793 284.483 108.135 288.811 108.135C293.368 108.135 296.709 107.527 298.836 106.31C301.038 105.017 302.405 103.305 302.937 101.175H308.746Z" fill="black"/>
<path d="M303.144 71.3965C314.231 71.3965 323.572 73.222 331.166 76.873C338.837 80.448 344.266 85.7725 347.456 92.8464H339.482C336.824 88.739 332.533 85.5063 326.61 83.1483C320.762 80.7903 312.978 79.6113 303.258 79.6113C297.866 79.6113 292.854 80.0677 288.221 80.9805C283.589 81.8932 279.526 83.3385 276.033 85.3161C272.539 87.2177 269.73 89.7278 267.603 92.8464H259.629C263.502 85.24 269.274 79.7635 276.944 76.4167C284.538 73.0699 293.272 71.3965 303.144 71.3965Z" fill="black"/>
<path d="M296.614 209.11C291.222 209.11 286.399 208.007 282.147 205.801C277.97 203.595 274.666 200.172 272.236 195.532C269.882 190.892 268.705 184.96 268.705 177.733C268.705 170.203 269.958 164.08 272.464 159.364C274.97 154.648 278.35 151.187 282.602 148.981C286.931 146.776 291.829 145.673 297.297 145.673C300.411 145.673 303.41 146.015 306.296 146.7C309.182 147.308 311.536 148.069 313.359 148.981L310.283 157.31C308.46 156.626 306.334 155.979 303.904 155.371C301.474 154.762 299.196 154.458 297.069 154.458C292.968 154.458 289.589 155.333 286.931 157.082C284.273 158.832 282.299 161.418 281.008 164.841C279.717 168.264 279.071 172.523 279.071 177.619C279.071 182.487 279.717 186.633 281.008 190.056C282.299 193.479 284.235 196.065 286.817 197.814C289.399 199.564 292.627 200.438 296.5 200.438C299.841 200.438 302.765 200.096 305.271 199.412C307.853 198.727 310.207 197.89 312.334 196.902V205.801C310.283 206.866 308.005 207.665 305.499 208.197C303.069 208.805 300.107 209.11 296.614 209.11ZM305.954 223.828C305.954 226.262 305.309 228.316 304.018 229.989C302.803 231.739 300.942 233.07 298.436 233.983C295.93 234.895 292.816 235.352 289.095 235.352C287.956 235.352 286.855 235.276 285.792 235.124C284.805 235.047 284.007 234.933 283.4 234.781V228.506C284.083 228.658 284.994 228.772 286.134 228.848C287.273 229 288.374 229.076 289.437 229.076C292.171 229.076 294.259 228.696 295.702 227.935C297.145 227.251 297.867 225.958 297.867 224.056C297.867 222.079 296.841 220.633 294.791 219.721C292.816 218.808 290.386 218.161 287.501 217.781L292.399 207.969H299.006L296.044 214.016C297.867 214.396 299.537 214.967 301.056 215.727C302.575 216.564 303.752 217.629 304.587 218.922C305.499 220.215 305.954 221.85 305.954 223.828Z" fill="black"/>
<path d="M304.993 148.981C307.575 148.601 309.816 147.764 311.714 146.471C313.613 145.178 315.094 143.391 316.157 141.109C317.144 138.827 317.638 136.013 317.638 132.666H328.231L329.029 133.921C328.345 137.952 327.092 141.527 325.27 144.646C323.523 147.764 321.017 150.313 317.751 152.29C314.486 154.192 310.233 155.447 304.993 156.055V148.981Z" fill="black"/>
<path d="M304.502 253.949H291.972V261.365H284.453V239.687H291.972V247.104H304.502V253.949Z" fill="black"/>
<path d="M306.094 271.178C305.411 272.243 304.423 273.536 303.132 275.057C301.841 276.578 300.399 278.138 298.804 279.735C297.285 281.408 295.766 282.968 294.247 284.413C292.652 285.934 291.172 287.227 289.805 288.292H283.198V286.923C284.337 285.478 285.59 283.766 286.957 281.789C288.248 279.811 289.539 277.757 290.83 275.627C292.121 273.574 293.184 271.71 294.019 270.037H306.094V271.178Z" fill="black"/>
<path d="M318.505 313.165H271.232V305.863H318.505V313.165ZM318.505 298.104H271.232V290.802H318.505V298.104Z" fill="black"/>
<path d="M311.673 130.726V138.827H277.841V130.726H311.673Z" fill="black"/>
<path d="M299.368 109.847V128.558H290.255V109.847H299.368Z" fill="black"/>
<path d="M335.509 150.579C334.826 153.241 333.953 156.131 332.889 159.25C331.826 162.369 330.649 165.487 329.358 168.606C328.143 171.648 326.928 174.539 325.713 177.277H318.309C318.84 175.147 319.41 172.865 320.017 170.431C320.549 167.997 321.08 165.563 321.612 163.129C322.068 160.619 322.523 158.185 322.979 155.827C323.359 153.469 323.7 151.301 324.004 149.324H334.712L335.509 150.579Z" fill="black"/>
<path d="M314.879 123.88C316.398 123.88 317.727 124.413 318.866 125.478C320.081 126.467 320.688 128.064 320.688 130.27C320.688 132.4 320.081 133.997 318.866 135.062C317.727 136.127 316.398 136.659 314.879 136.659C313.208 136.659 311.803 136.127 310.664 135.062C309.525 133.997 308.955 132.4 308.955 130.27C308.955 128.064 309.525 126.467 310.664 125.478C311.803 124.413 313.208 123.88 314.879 123.88Z" fill="black"/>
<path d="M352.013 96.7257H283.665V90.9068H352.013V96.7257Z" fill="black"/>
<path d="M375.04 79.6113H306.692V73.7925H375.04V79.6113Z" fill="black"/>
<path d="M334.714 136.545H335.511C338.397 136.545 339.84 137.952 339.84 140.767V152.062H355.56C358.522 152.062 360.002 153.355 360.002 155.941C360.002 158.527 358.522 159.82 355.56 159.82H339.84V188.573C339.84 193.365 340.751 196.749 342.574 198.727C344.472 200.629 347.206 201.579 350.775 201.579C354.421 201.579 357.117 200.705 358.863 198.955C360.762 199.564 361.711 200.781 361.711 202.606C361.711 204.432 360.458 205.953 357.952 207.17C355.446 208.311 352.446 208.882 348.953 208.882C336.574 208.882 330.385 202.112 330.385 188.573V159.82H324.803C323.133 159.82 321.918 159.554 321.158 159.022C320.399 158.489 320.019 157.463 320.019 155.941C320.019 153.355 321.614 152.062 324.803 152.062H330.385V140.767C330.385 137.952 331.828 136.545 334.714 136.545Z" fill="black"/>
<path d="M334.983 120.572C335.819 122.245 336.806 124.147 337.945 126.276C339.008 128.33 340.147 130.346 341.363 132.323C342.578 134.301 343.717 136.013 344.78 137.458V138.827H339.084C337.793 137.762 336.426 136.507 334.983 135.062C333.465 133.54 331.984 131.943 330.541 130.27C329.022 128.596 327.693 126.999 326.554 125.478C325.415 123.956 324.541 122.701 323.934 121.713V120.572H334.983ZM314.935 120.572C315.77 122.245 316.757 124.147 317.897 126.276C318.96 128.33 320.099 130.346 321.314 132.323C322.529 134.301 323.668 136.013 324.731 137.458V138.827H319.036C317.745 137.762 316.378 136.507 314.935 135.062C313.416 133.54 311.935 131.943 310.492 130.27C308.973 128.596 307.644 126.999 306.505 125.478C305.366 123.956 304.493 122.701 303.885 121.713V120.572H314.935Z" fill="black"/>
<path d="M304.575 98.2089H354.241V117.605H346.723V105.055H312.093V117.605H304.575V98.2089Z" fill="black"/>
<path d="M372.802 170.66H403.103C405.913 170.66 407.318 171.915 407.318 174.425C407.318 176.935 405.913 178.19 403.103 178.19H372.802C369.993 178.19 368.588 176.935 368.588 174.425C368.588 171.915 369.993 170.66 372.802 170.66Z" fill="black"/>
<path d="M392.786 184.351C393.014 182.069 393.47 180.053 394.153 178.304C394.761 176.478 395.596 174.957 396.659 173.74C397.722 172.447 398.975 171.458 400.418 170.774C401.861 170.089 403.494 169.747 405.317 169.747C406.987 169.747 408.62 170.089 410.215 170.774C411.734 171.382 413.214 172.143 414.657 173.056C416.1 173.892 417.467 174.653 418.758 175.337C420.125 175.946 421.416 176.25 422.631 176.25C424.378 176.25 425.707 175.718 426.618 174.653C427.605 173.512 428.365 171.839 428.896 169.633H434.592C434.136 174.044 432.845 177.581 430.719 180.244C428.593 182.906 425.745 184.237 422.176 184.237C420.581 184.237 419.024 183.933 417.505 183.324C415.986 182.64 414.505 181.879 413.063 181.042C411.544 180.129 410.139 179.369 408.848 178.76C407.481 178.076 406.152 177.733 404.861 177.733C403.038 177.733 401.671 178.304 400.76 179.445C399.849 180.51 399.127 182.145 398.596 184.351H392.786Z" fill="black"/>
<path d="M430.719 213.788C430.491 216.83 429.618 219.492 428.099 221.774C426.656 224.056 424.644 225.844 422.062 227.137C419.48 228.43 416.366 229.076 412.721 229.076C407.101 229.076 402.886 227.669 400.077 224.855C397.191 222.117 395.596 218.428 395.292 213.788H401.443C401.671 215.841 402.279 217.363 403.266 218.351C404.177 219.416 405.468 220.101 407.139 220.405C408.734 220.786 410.67 220.976 412.949 220.976C414.923 220.976 416.708 220.786 418.303 220.405C419.973 220.025 421.34 219.302 422.403 218.237C423.543 217.249 424.226 215.765 424.454 213.788H430.719Z" fill="black"/>
<path d="M408.159 253.493C407.172 251.743 405.843 249.842 404.172 247.788C402.501 245.81 400.755 243.833 398.932 241.855C397.109 239.877 395.515 238.166 394.148 236.721V235.238H400.982C402.957 236.531 405.007 238.09 407.134 239.916C409.26 241.741 411.273 243.681 413.171 245.734C415.222 243.681 417.31 241.741 419.436 239.916C421.563 238.09 423.613 236.531 425.588 235.238H432.65V236.721C431.207 238.166 429.537 239.877 427.638 241.855C425.815 243.833 424.031 245.81 422.284 247.788C420.613 249.842 419.322 251.743 418.411 253.493H408.159Z" fill="black"/>
<path d="M404.275 256.916C406.402 256.916 408.262 257.296 409.857 258.057C411.452 258.817 412.743 259.92 413.73 261.365C414.641 259.92 415.894 258.817 417.489 258.057C419.084 257.296 420.944 256.916 423.071 256.916C426.792 256.916 429.792 257.943 432.07 259.996C434.348 262.126 435.487 265.093 435.487 268.896C435.487 272.699 434.348 275.665 432.07 277.795C429.792 279.925 426.792 280.99 423.071 280.99C421.02 280.99 419.198 280.572 417.603 279.735C416.008 278.974 414.717 277.871 413.73 276.426C412.743 277.871 411.452 278.974 409.857 279.735C408.186 280.572 406.326 280.99 404.275 280.99C400.554 280.99 397.554 279.925 395.276 277.795C392.998 275.665 391.859 272.699 391.859 268.896C391.859 265.093 392.998 262.126 395.276 259.996C397.554 257.943 400.554 256.916 404.275 256.916ZM416.692 268.896C416.692 270.873 417.261 272.433 418.4 273.574C419.616 274.715 421.172 275.285 423.071 275.285C425.121 275.285 426.678 274.715 427.741 273.574C428.88 272.433 429.45 270.873 429.45 268.896C429.45 266.918 428.842 265.359 427.627 264.218C426.412 263.077 424.893 262.506 423.071 262.506C421.248 262.506 419.729 263.077 418.514 264.218C417.299 265.359 416.692 266.918 416.692 268.896ZM410.654 268.896C410.654 266.918 410.047 265.359 408.832 264.218C407.617 263.077 406.098 262.506 404.275 262.506C402.453 262.506 400.934 263.077 399.719 264.218C398.504 265.359 397.896 266.918 397.896 268.896C397.896 270.873 398.466 272.433 399.605 273.574C400.668 274.715 402.225 275.285 404.275 275.285C406.174 275.285 407.731 274.715 408.946 273.574C410.085 272.433 410.654 270.873 410.654 268.896Z" fill="black"/>
<path d="M412.602 307.802C413.361 306.357 414.234 304.417 415.222 301.983C416.209 299.549 417.158 297.077 418.069 294.567C419.057 292.057 419.816 289.927 420.348 288.178H428.094C428.549 289.927 429.195 292.057 430.03 294.567C430.866 297.077 431.777 299.549 432.764 301.983C433.751 304.417 434.663 306.357 435.498 307.802V309.171H429.688C428.701 307.802 427.676 305.863 426.613 303.353C425.626 300.843 424.752 298.523 423.993 296.393C423.157 298.523 422.246 300.804 421.259 303.239C420.348 305.673 419.398 307.65 418.411 309.171H412.602V307.802ZM393.578 286.695C395.097 287.455 396.882 288.33 398.932 289.319C400.907 290.308 402.995 291.258 405.197 292.171C407.324 293.084 409.26 293.807 411.007 294.339V302.098C409.26 302.554 407.324 303.2 405.197 304.037C402.995 304.95 400.907 305.863 398.932 306.775C396.882 307.764 395.097 308.677 393.578 309.514H392.325V303.695C393.692 302.782 395.249 301.869 396.996 300.957C398.742 300.044 400.679 299.093 402.805 298.104C400.679 297.039 398.78 296.05 397.109 295.138C395.439 294.301 393.844 293.388 392.325 292.399V286.695H393.578Z" fill="black"/>
<path d="M412.824 336.326C413.583 334.881 414.457 332.941 415.444 330.507C416.431 328.073 417.381 325.601 418.292 323.091C419.279 320.581 420.039 318.451 420.57 316.702H428.316C428.772 318.451 429.417 320.581 430.253 323.091C431.088 325.601 431.999 328.073 432.987 330.507C433.974 332.941 434.885 334.881 435.721 336.326V337.695H429.911C428.924 336.326 427.899 334.387 426.835 331.876C425.848 329.366 424.975 327.046 424.215 324.917C423.38 327.046 422.469 329.328 421.481 331.762C420.57 334.196 419.621 336.174 418.634 337.695H412.824V336.326ZM393.801 315.219C395.319 315.979 397.104 316.854 399.155 317.843C401.129 318.832 403.217 319.782 405.42 320.695C407.546 321.608 409.483 322.33 411.229 322.863V330.621C409.483 331.078 407.546 331.724 405.42 332.561C403.217 333.474 401.129 334.387 399.155 335.299C397.104 336.288 395.319 337.201 393.801 338.038H392.548V332.219C393.915 331.306 395.471 330.393 397.218 329.48C398.965 328.568 400.901 327.617 403.028 326.628C400.901 325.563 399.003 324.574 397.332 323.662C395.661 322.825 394.066 321.912 392.548 320.923V315.219H393.801Z" fill="black"/>
<path d="M398.447 353.441C398.447 351.463 398.979 350.018 400.042 349.105C401.105 348.268 402.358 347.85 403.801 347.85C405.244 347.85 406.497 348.268 407.56 349.105C408.623 350.018 409.155 351.463 409.155 353.441C409.155 355.342 408.623 356.749 407.56 357.662C406.497 358.651 405.244 359.145 403.801 359.145C402.358 359.145 401.105 358.651 400.042 357.662C398.979 356.749 398.447 355.342 398.447 353.441ZM419.863 353.441C419.863 351.463 420.356 350.018 421.343 349.105C422.407 348.268 423.66 347.85 425.103 347.85C426.546 347.85 427.799 348.268 428.862 349.105C429.925 350.018 430.457 351.463 430.457 353.441C430.457 355.342 429.925 356.749 428.862 357.662C427.799 358.651 426.546 359.145 425.103 359.145C423.66 359.145 422.407 358.651 421.343 357.662C420.356 356.749 419.863 355.342 419.863 353.441Z" fill="black"/>
<path d="M393.09 376.488C393.09 372 394.268 368.653 396.622 366.447C398.976 364.318 401.976 363.253 405.621 363.253C407.747 363.253 409.57 363.595 411.089 364.28C412.532 364.964 413.747 365.953 414.734 367.246C415.721 365.953 416.974 364.964 418.493 364.28C420.012 363.595 421.796 363.253 423.847 363.253C427.568 363.253 430.568 364.356 432.846 366.562C435.124 368.767 436.263 372.076 436.263 376.488H430.112C430.112 373.902 429.58 372 428.517 370.783C427.454 369.566 425.897 368.958 423.847 368.958C421.948 368.958 420.392 369.566 419.176 370.783C418.037 372 417.468 373.902 417.468 376.488H412C412 373.902 411.468 372 410.405 370.783C409.266 369.566 407.671 368.958 405.621 368.958C403.722 368.958 402.203 369.566 401.064 370.783C399.849 372 399.242 373.902 399.242 376.488H393.09Z" fill="black"/>
<path d="M415.182 385.045C418.979 385.045 422.13 385.653 424.636 386.871C427.142 388.164 429.041 389.951 430.332 392.233C431.699 394.515 432.458 397.215 432.61 400.334H426.459C426.231 398.204 425.624 396.645 424.636 395.656C423.725 394.667 422.472 393.982 420.877 393.602C419.282 393.298 417.308 393.146 414.954 393.146C412.979 393.146 411.195 393.336 409.6 393.716C407.929 394.097 406.562 394.781 405.499 395.77C404.436 396.835 403.752 398.356 403.449 400.334H397.183C397.487 397.291 398.36 394.629 399.803 392.347C401.246 390.065 403.259 388.278 405.841 386.985C408.423 385.692 411.536 385.045 415.182 385.045Z" fill="black"/>
<path d="M420.188 400.79C421.1 402.464 422.391 404.327 424.061 406.381C425.808 408.511 427.593 410.564 429.415 412.542C431.314 414.596 432.985 416.345 434.427 417.79V419.045H427.365C425.39 417.828 423.34 416.307 421.214 414.482C419.087 412.732 416.999 410.831 414.948 408.777C412.898 410.831 410.848 412.732 408.797 414.482C406.747 416.231 404.734 417.752 402.76 419.045H395.925V417.79C397.368 416.269 399.001 414.52 400.823 412.542C402.57 410.564 404.279 408.511 405.949 406.381C407.62 404.327 408.949 402.464 409.936 400.79H420.188Z" fill="black"/>
<path d="M368.864 120.572C369.7 122.245 370.763 124.147 372.054 126.276C373.269 128.33 374.598 130.346 376.041 132.323C377.408 134.301 378.661 136.013 379.8 137.458V138.827H373.079C371.788 137.762 370.345 136.507 368.751 135.062C367.156 133.54 365.599 131.981 364.08 130.384C362.485 128.71 361.08 127.113 359.865 125.592C358.574 124.071 357.587 122.777 356.904 121.713V120.572H368.864Z" fill="black"/>
<path d="M433.909 123.88C435.427 123.88 436.756 124.413 437.896 125.478C439.111 126.467 439.718 128.064 439.718 130.27C439.718 132.4 439.111 133.997 437.896 135.062C436.756 136.127 435.427 136.659 433.909 136.659C432.238 136.659 430.833 136.127 429.694 135.062C428.555 133.997 427.985 132.4 427.985 130.27C427.985 128.064 428.555 126.467 429.694 125.478C430.833 124.413 432.238 123.88 433.909 123.88Z" fill="black"/>
<path d="M472.377 433.307H404.03V427.489H472.377V433.307Z" fill="black"/>
<path d="M462.501 139.397C459.235 141.451 455.78 143.695 452.135 146.129C448.489 148.487 445.338 150.655 442.68 152.632L436.187 146.129L436.301 144.988C438.351 143.771 440.591 142.592 443.022 141.451C445.452 140.234 447.958 139.055 450.54 137.914C453.122 136.773 455.59 135.746 457.944 134.834L462.501 139.397ZM383.445 204.546L389.938 211.163L389.824 212.19C388.306 213.103 386.673 214.016 384.926 214.929C383.104 215.841 381.281 216.716 379.458 217.553C377.56 218.466 375.661 219.302 373.763 220.063C371.864 220.9 370.004 221.66 368.181 222.345L363.624 217.781C366.89 215.727 370.345 213.483 373.991 211.049C377.636 208.691 380.787 206.524 383.445 204.546ZM350.411 169.861C354.208 170.774 358.271 171.686 362.599 172.599C366.852 173.436 370.611 174.082 373.877 174.539V183.895L372.851 184.579C369.434 183.666 365.751 182.449 361.802 180.928C357.777 179.407 353.98 177.886 350.411 176.364V169.861ZM420.467 217.439C419.556 220.862 418.341 224.551 416.822 228.506C415.303 232.537 413.784 236.341 412.265 239.916H405.772C406.683 236.112 407.595 232.043 408.506 227.707C409.341 223.448 409.987 219.683 410.443 216.412H419.783L420.467 217.439ZM446.553 201.922C447.768 203.975 448.945 206.219 450.084 208.653C451.299 211.087 452.476 213.559 453.615 216.07C454.755 218.656 455.78 221.166 456.691 223.6L452.135 228.278C450.084 224.931 447.844 221.432 445.414 217.781C443.06 214.13 440.895 211.011 438.921 208.425L445.414 201.808L446.553 201.922ZM373.877 129.129C375.927 132.4 378.167 135.86 380.597 139.511C382.952 143.163 385.116 146.319 387.09 148.981L380.484 155.485L379.458 155.371C377.712 152.252 375.927 148.753 374.104 144.874C372.282 140.995 370.687 137.306 369.32 133.807L373.877 129.129ZM453.274 169.861C455.552 170.469 457.982 171.23 460.564 172.143C463.146 172.979 465.728 173.93 468.31 174.995C470.892 175.984 473.36 177.011 475.715 178.076V184.579C471.993 183.666 467.968 182.792 463.64 181.955C459.387 181.042 455.59 180.358 452.249 179.901V170.545L453.274 169.861ZM420.467 114.41C419.556 118.138 418.644 122.169 417.733 126.505C416.898 130.764 416.252 134.567 415.796 137.914H406.456L405.772 136.887C406.38 134.605 407.139 132.171 408.05 129.585C408.886 126.999 409.835 124.413 410.898 121.827C411.961 119.241 412.987 116.768 413.974 114.41H420.467Z" fill="black"/>
<path d="M462.501 139.397C459.235 141.451 455.78 143.695 452.135 146.129C448.489 148.487 445.338 150.655 442.68 152.632L436.187 146.129L436.301 144.988C438.351 143.771 440.591 142.592 443.022 141.451C445.452 140.234 447.958 139.055 450.54 137.914C453.122 136.773 455.59 135.746 457.944 134.834L462.501 139.397ZM383.445 204.546L389.938 211.163L389.824 212.19C388.306 213.103 386.673 214.016 384.926 214.929C383.104 215.841 381.281 216.716 379.458 217.553C377.56 218.466 375.661 219.302 373.763 220.063C371.864 220.9 370.004 221.66 368.181 222.345L363.624 217.781C366.89 215.727 370.345 213.483 373.991 211.049C377.636 208.691 380.787 206.524 383.445 204.546ZM350.411 169.861C354.208 170.774 358.271 171.686 362.599 172.599C366.852 173.436 370.611 174.082 373.877 174.539V183.895L372.851 184.579C369.434 183.666 365.751 182.449 361.802 180.928C357.777 179.407 353.98 177.886 350.411 176.364V169.861ZM420.467 217.439C419.556 220.862 418.341 224.551 416.822 228.506C415.303 232.537 413.784 236.341 412.265 239.916H405.772C406.683 236.112 407.595 232.043 408.506 227.707C409.341 223.448 409.987 219.683 410.443 216.412H419.783L420.467 217.439ZM446.553 201.922C447.768 203.975 448.945 206.219 450.084 208.653C451.299 211.087 452.476 213.559 453.615 216.07C454.755 218.656 455.78 221.166 456.691 223.6L452.135 228.278C450.084 224.931 447.844 221.432 445.414 217.781C443.06 214.13 440.895 211.011 438.921 208.425L445.414 201.808L446.553 201.922ZM373.877 129.129C375.927 132.4 378.167 135.86 380.597 139.511C382.952 143.163 385.116 146.319 387.09 148.981L380.484 155.485L379.458 155.371C377.712 152.252 375.927 148.753 374.104 144.874C372.282 140.995 370.687 137.306 369.32 133.807L373.877 129.129ZM453.274 169.861C455.552 170.469 457.982 171.23 460.564 172.143C463.146 172.979 465.728 173.93 468.31 174.995C470.892 175.984 473.36 177.011 475.715 178.076V184.579C471.993 183.666 467.968 182.792 463.64 181.955C459.387 181.042 455.59 180.358 452.249 179.901V170.545L453.274 169.861ZM420.467 114.41C419.556 118.138 418.644 122.169 417.733 126.505C416.898 130.764 416.252 134.567 415.796 137.914H406.456L405.772 136.887C406.38 134.605 407.139 132.171 408.05 129.585C408.886 126.999 409.835 124.413 410.898 121.827C411.961 119.241 412.987 116.768 413.974 114.41H420.467Z" fill="black"/>
<path d="M411.923 221.204C411.923 222.877 412.379 224.132 413.29 224.969C414.202 225.882 415.455 226.338 417.05 226.338C418.341 226.338 419.404 226.224 420.239 225.996C421.15 225.844 421.91 225.73 422.517 225.654V232.043C421.454 232.347 420.391 232.575 419.328 232.727C418.265 232.956 416.974 233.07 415.455 233.07C412.797 233.07 410.594 232.651 408.848 231.815C407.101 230.978 405.81 229.723 404.975 228.05C404.139 226.452 403.722 224.551 403.722 222.345C403.722 220.139 404.291 218.009 405.43 215.955C406.494 213.902 407.861 212.038 409.531 210.365C411.126 208.691 412.683 207.322 414.202 206.257L419.67 207.969C417.087 210.403 415.151 212.609 413.86 214.586C412.569 216.64 411.923 218.846 411.923 221.204Z" fill="black"/>
<path d="M398.937 121.713C398.254 122.777 397.267 124.071 395.976 125.592C394.685 127.113 393.28 128.71 391.761 130.384C390.166 131.981 388.609 133.54 387.09 135.062C385.496 136.507 384.015 137.762 382.648 138.827H376.041V137.458C377.18 136.013 378.433 134.301 379.8 132.323C381.091 130.346 382.382 128.33 383.673 126.276C384.964 124.147 386.027 122.245 386.863 120.572H398.937V121.713Z" fill="black"/>
<path d="M421.834 127.76C421.15 130.422 420.277 133.312 419.214 136.431C418.151 139.55 416.974 142.668 415.683 145.787C414.467 148.829 413.252 151.72 412.037 154.458H404.633C405.165 152.328 405.734 150.046 406.342 147.612C406.873 145.178 407.405 142.744 407.936 140.31C408.392 137.8 408.848 135.366 409.303 133.008C409.683 130.65 410.025 128.482 410.329 126.505H421.036L421.834 127.76Z" fill="black"/>
<path d="M439.004 113.84H370.657V108.021H439.004V113.84Z" fill="black"/>
<path d="M424.226 151.72H458.514C460.26 151.72 461.665 152.252 462.729 153.317C463.792 154.306 464.323 155.675 464.323 157.424V158.337C464.323 160.163 463.45 161.988 461.703 163.814C459.957 165.563 455.02 170.812 446.895 179.559C438.769 188.23 432.618 194.772 428.441 199.183V199.64H457.716C461.589 199.64 463.83 200.21 464.437 201.351C464.741 201.96 464.893 202.758 464.893 203.747C464.893 206.562 463.526 207.969 460.792 207.969H424.226C420.353 207.969 418.416 206.067 418.416 202.264V201.123C418.416 199.526 419.404 197.662 421.378 195.532C424.872 191.805 430.036 186.062 436.87 178.304C443.781 170.545 448.983 164.803 452.476 161.076V160.049H424.226C421.416 160.049 420.011 158.68 420.011 155.941C420.011 153.127 421.416 151.72 424.226 151.72Z" fill="black"/>
<path d="M449.409 184.351C449.637 182.069 450.092 180.053 450.776 178.304C451.383 176.478 452.219 174.957 453.282 173.74C454.345 172.447 455.598 171.458 457.041 170.774C458.484 170.089 460.117 169.747 461.939 169.747C463.61 169.747 465.243 170.089 466.837 170.774C468.356 171.382 469.837 172.143 471.28 173.056C472.723 173.892 474.09 174.653 475.381 175.337C476.748 175.946 478.039 176.25 479.254 176.25C481.001 176.25 482.329 175.718 483.241 174.653C484.228 173.512 484.987 171.839 485.519 169.633H491.215C490.759 174.044 489.468 177.581 487.342 180.244C485.215 182.906 482.367 184.237 478.798 184.237C477.203 184.237 475.647 183.933 474.128 183.324C472.609 182.64 471.128 181.879 469.685 181.042C468.166 180.129 466.761 179.369 465.47 178.76C464.103 178.076 462.774 177.733 461.483 177.733C459.661 177.733 458.294 178.304 457.383 179.445C456.471 180.51 455.75 182.145 455.218 184.351H449.409Z" fill="black"/>
<path d="M492.24 121.484L455.788 214.586H447.13L483.583 121.484H492.24Z" fill="black"/>
<path d="M481.076 223.828C481.076 226.262 480.431 228.316 479.14 229.989C477.925 231.739 476.064 233.07 473.558 233.983C471.052 234.895 467.939 235.352 464.217 235.352C463.078 235.352 462.015 235.276 461.028 235.124C459.965 235.047 459.129 234.933 458.522 234.781V228.506C459.205 228.658 460.116 228.772 461.256 228.848C462.395 229 463.496 229.076 464.559 229.076C467.293 229.076 469.381 228.696 470.824 227.935C472.267 227.251 472.989 225.958 472.989 224.056C472.989 222.079 471.963 220.633 469.913 219.721C467.939 218.808 465.508 218.161 462.623 217.781L467.521 207.969H474.128L471.166 214.016C472.989 214.396 474.659 214.967 476.178 215.727C477.697 216.564 478.874 217.629 479.71 218.922C480.621 220.215 481.076 221.85 481.076 223.828Z" fill="black"/>
<path d="M455.56 121.713C454.877 122.777 453.889 124.071 452.598 125.592C451.307 127.113 449.902 128.71 448.384 130.384C446.789 131.981 445.232 133.54 443.713 135.062C442.118 136.507 440.637 137.762 439.27 138.827H432.664V137.458C433.803 136.013 435.056 134.301 436.423 132.323C437.714 130.346 439.005 128.33 440.296 126.276C441.587 124.147 442.65 122.245 443.485 120.572H455.56V121.713Z" fill="black"/>
<path d="M422.698 107.451C422.698 105.473 423.23 104.066 424.293 103.229C425.356 102.316 426.609 101.86 428.052 101.86C429.495 101.86 430.748 102.316 431.811 103.229C432.874 104.066 433.406 105.473 433.406 107.451C433.406 109.352 432.874 110.797 431.811 111.786C430.748 112.699 429.495 113.155 428.052 113.155C426.609 113.155 425.356 112.699 424.293 111.786C423.23 110.797 422.698 109.352 422.698 107.451ZM444.114 107.451C444.114 105.473 444.607 104.066 445.594 103.229C446.658 102.316 447.911 101.86 449.354 101.86C450.796 101.86 452.049 102.316 453.113 103.229C454.176 104.066 454.707 105.473 454.707 107.451C454.707 109.352 454.176 110.797 453.113 111.786C452.049 112.699 450.796 113.155 449.354 113.155C447.911 113.155 446.658 112.699 445.594 111.786C444.607 110.797 444.114 109.352 444.114 107.451Z" fill="black"/>
<path d="M422.698 84.6315C422.698 82.6539 423.23 81.2467 424.293 80.41C425.356 79.4972 426.609 79.0409 428.052 79.0409C429.495 79.0409 430.748 79.4972 431.811 80.41C432.874 81.2467 433.406 82.6539 433.406 84.6315C433.406 86.5331 432.874 87.9783 431.811 88.9672C430.748 89.8799 429.495 90.3363 428.052 90.3363C426.609 90.3363 425.356 89.8799 424.293 88.9672C423.23 87.9783 422.698 86.5331 422.698 84.6315ZM444.114 84.6315C444.114 82.6539 444.607 81.2467 445.594 80.41C446.658 79.4972 447.911 79.0409 449.354 79.0409C450.796 79.0409 452.049 79.4972 453.113 80.41C454.176 81.2467 454.707 82.6539 454.707 84.6315C454.707 86.5331 454.176 87.9783 453.113 88.9672C452.049 89.8799 450.796 90.3363 449.354 90.3363C447.911 90.3363 446.658 89.8799 445.594 88.9672C444.607 87.9783 444.114 86.5331 444.114 84.6315Z" fill="black"/>
<path d="M498.953 262.735C491.586 262.735 484.979 261.936 479.132 260.339C473.208 258.741 468.196 256.345 464.095 253.151C459.919 249.956 456.767 246.001 454.641 241.285H462.615C464.437 244.023 466.943 246.381 470.133 248.359C473.322 250.336 477.309 251.858 482.094 252.922C486.802 253.987 492.384 254.52 498.839 254.52C504.231 254.52 509.243 254.063 513.875 253.151C518.508 252.238 522.571 250.793 526.064 248.815C529.633 246.837 532.443 244.327 534.493 241.285H542.467C538.594 248.891 532.823 254.368 525.153 257.714C517.558 261.061 508.825 262.735 498.953 262.735Z" fill="black"/>
<path d="M516.77 55.5372C516.163 58.9601 514.948 61.7364 513.125 63.8662C511.378 65.9959 509.1 67.5933 506.29 68.6582C503.556 69.647 500.367 70.1414 496.722 70.1414C492.393 70.1414 488.254 69.7991 484.305 69.1146C480.432 68.43 476.597 67.6313 472.8 66.7186C469.003 65.8058 465.168 65.0071 461.295 64.3225C457.346 63.638 453.207 63.2957 448.878 63.2957C445.841 63.2957 443.335 63.5999 441.36 64.2084C439.386 64.7409 437.905 65.5396 436.917 66.6044C435.854 67.5933 435.133 68.8103 434.753 70.2555H428.944C429.551 66.8326 430.766 64.0563 432.589 61.9265C434.335 59.7207 436.614 58.1234 439.424 57.1345C442.233 56.1457 445.461 55.6513 449.106 55.6513C453.359 55.6513 457.422 55.9936 461.295 56.6781C465.168 57.3627 469.003 58.1614 472.8 59.0742C476.597 59.9869 480.47 60.7856 484.419 61.4702C488.368 62.1547 492.507 62.497 496.836 62.497C501.392 62.497 504.734 61.8885 506.86 60.6715C509.062 59.3784 510.429 57.667 510.961 55.5372H516.77Z" fill="black"/>
<path d="M502.492 145.787C509.934 145.787 515.44 147.422 519.009 150.693C522.579 153.964 524.363 159.174 524.363 166.324V207.969H517.073L515.136 199.298H514.681C512.934 201.503 511.111 203.367 509.213 204.888C507.39 206.333 505.264 207.398 502.834 208.083C500.48 208.767 497.594 209.11 494.176 209.11C490.531 209.11 487.228 208.463 484.266 207.17C481.38 205.877 479.102 203.899 477.431 201.237C475.761 198.499 474.925 195.076 474.925 190.969C474.925 184.883 477.317 180.206 482.102 176.935C486.886 173.588 494.252 171.762 504.201 171.458L514.567 171.116V167.465C514.567 162.369 513.466 158.832 511.263 156.854C509.061 154.876 505.947 153.888 501.922 153.888C498.733 153.888 495.695 154.382 492.809 155.371C489.924 156.284 487.228 157.348 484.722 158.565L481.646 151.035C484.304 149.59 487.456 148.373 491.101 147.384C494.746 146.319 498.543 145.787 502.492 145.787ZM505.454 178.418C497.86 178.722 492.582 179.939 489.62 182.069C486.734 184.199 485.291 187.203 485.291 191.083C485.291 194.506 486.316 197.016 488.367 198.613C490.493 200.21 493.189 201.009 496.455 201.009C501.619 201.009 505.909 199.602 509.327 196.787C512.744 193.897 514.453 189.485 514.453 183.552V178.076L505.454 178.418Z" fill="black"/>
<path d="M514.709 225.996H488.737V219.15H514.709V225.996Z" fill="black"/>
<path d="M505.482 241.969V253.379H513.684V260.225H489.762V253.379H497.964V241.969H505.482Z" fill="black"/>
<path d="M491.124 267.869L495.908 263.077L501.718 268.782L507.3 263.191L512.653 268.553L507.072 274.144L512.767 279.963L507.983 284.755L502.173 279.05L496.592 284.641L491.238 279.278L496.82 273.688L491.124 267.869Z" fill="black"/>
<path d="M546.866 127.988H547.664C550.55 127.988 551.992 129.395 551.992 132.209V203.633C551.992 206.524 550.55 207.969 547.664 207.969H546.866C545.272 207.969 544.132 207.626 543.449 206.942C542.841 206.257 542.538 205.154 542.538 203.633V132.209C542.538 130.688 542.841 129.623 543.449 129.015C544.132 128.33 545.272 127.988 546.866 127.988Z" fill="black"/>
<path d="M581.292 232.842H540.739V213.445H548.257V225.996H573.774V213.445H581.292V232.842Z" fill="black"/>
<path d="M556.459 241.056V259.768H547.346V241.056H556.459ZM574.685 241.056V259.768H565.572V241.056H574.685Z" fill="black"/>
<path d="M559.887 284.983C560.647 283.538 561.52 281.598 562.507 279.164C563.494 276.73 564.444 274.258 565.355 271.748C566.342 269.238 567.102 267.108 567.633 265.359H575.379C575.835 267.108 576.48 269.238 577.316 271.748C578.151 274.258 579.062 276.73 580.05 279.164C581.037 281.598 581.948 283.538 582.784 284.983V286.352H576.974C575.987 284.983 574.962 283.044 573.898 280.534C572.911 278.023 572.038 275.703 571.278 273.574C570.443 275.703 569.532 277.985 568.544 280.419C567.633 282.853 566.684 284.831 565.697 286.352H559.887V284.983ZM540.864 263.876C542.383 264.636 544.167 265.511 546.218 266.5C548.192 267.489 550.28 268.439 552.483 269.352C554.609 270.265 556.546 270.988 558.292 271.52V279.278C556.546 279.735 554.609 280.381 552.483 281.218C550.28 282.131 548.192 283.044 546.218 283.956C544.167 284.945 542.383 285.858 540.864 286.695H539.611V280.876C540.978 279.963 542.534 279.05 544.281 278.137C546.028 277.225 547.964 276.274 550.091 275.285C547.964 274.22 546.066 273.231 544.395 272.319C542.724 271.482 541.129 270.569 539.611 269.58V263.876H540.864Z" fill="black"/>
<path d="M561.688 293.769C565.485 293.769 568.637 294.377 571.143 295.594C573.649 296.887 575.548 298.675 576.839 300.957C578.206 303.239 578.965 305.939 579.117 309.057H572.966C572.738 306.928 572.13 305.368 571.143 304.379C570.232 303.391 568.979 302.706 567.384 302.326C565.789 302.021 563.815 301.869 561.461 301.869C559.486 301.869 557.701 302.06 556.107 302.44C554.436 302.82 553.069 303.505 552.006 304.494C550.943 305.558 550.259 307.08 549.955 309.057H543.69C543.994 306.015 544.867 303.353 546.31 301.071C547.753 298.789 549.765 297.001 552.348 295.708C554.93 294.415 558.043 293.769 561.688 293.769Z" fill="black"/>
<path d="M557.126 309.514V328.225H548.013V309.514H557.126ZM575.353 309.514V328.225H566.24V309.514H575.353Z" fill="black"/>
<path d="M568.062 353.441C564.341 353.441 561.341 352.376 559.063 350.246C556.785 348.116 555.646 345.15 555.646 341.346C555.646 337.543 556.785 334.577 559.063 332.447C561.341 330.393 564.341 329.366 568.062 329.366V335.071C566.24 335.071 564.721 335.604 563.506 336.669C562.291 337.809 561.683 339.369 561.683 341.346C561.683 343.324 562.215 344.845 563.278 345.91C564.417 347.051 566.012 347.622 568.062 347.622V353.441Z" fill="black"/>
<path d="M589.608 191.653L584.482 191.425C582.659 191.425 581.102 191.919 579.811 192.908C578.52 193.821 577.875 194.848 577.875 195.989C577.875 198.879 580.305 200.324 585.165 200.324H593.595C609.77 200.324 617.858 205.307 617.858 215.271C617.858 220.519 615.314 224.779 610.226 228.05C605.214 231.32 598.759 233.108 590.861 233.412H588.127C581.672 233.412 576.166 232.119 571.609 229.533C567.053 226.947 564.775 223.904 564.775 220.405C564.775 218.732 565.154 217.401 565.914 216.412C566.749 215.423 567.812 214.853 569.103 214.7C570.546 217.667 573.09 220.139 576.736 222.117C580.381 224.094 584.671 225.083 589.608 225.083H590.405C596.101 225.083 600.543 224.208 603.733 222.459C606.998 220.709 608.631 218.504 608.631 215.841C608.631 213.255 607.188 211.354 604.302 210.137C601.493 208.996 596.594 208.425 589.608 208.425C582.697 208.425 577.495 207.741 574.002 206.371C570.508 205.002 568.762 202.34 568.762 198.385C568.762 194.429 571.533 191.311 577.077 189.029C570.47 185.302 567.167 179.369 567.167 171.23C567.167 164.765 569.369 159.744 573.774 156.169C578.178 152.594 583.608 150.807 590.063 150.807C593.329 150.807 596.328 151.491 599.062 152.861C601.872 154.23 603.999 155.713 605.442 157.31C608.327 155.409 609.77 151.948 609.77 146.928C611.821 146.928 613.643 147.574 615.238 148.867C616.833 150.084 617.63 151.644 617.63 153.545C617.63 157.348 614.82 160.087 609.201 161.76C610.871 164.042 611.707 167.389 611.707 171.8C611.707 178.266 609.58 183.21 605.328 186.633C601.151 189.98 595.911 191.653 589.608 191.653ZM599.176 161.418C596.67 159.212 593.481 158.109 589.608 158.109C585.735 158.109 582.507 159.212 579.925 161.418C577.343 163.548 576.052 166.856 576.052 171.344C576.052 175.832 577.343 179.179 579.925 181.385C582.507 183.514 585.735 184.579 589.608 184.579C593.481 184.579 596.67 183.514 599.176 181.385C601.758 179.179 603.049 175.832 603.049 171.344C603.049 166.856 601.758 163.548 599.176 161.418Z" fill="black"/>
<path d="M643.753 121.484L607.301 214.586H598.643L635.095 121.484H643.753Z" fill="black"/>
<path d="M604.681 180.244L633.614 162.787L637.829 169.747L608.781 187.089L604.681 180.244Z" fill="black"/>
<path d="M604.681 180.244L633.614 162.787L637.829 169.747L608.781 187.089L604.681 180.244Z" fill="black"/>
<path d="M607.87 235.124C606.427 235.124 605.136 234.971 603.997 234.667C602.782 234.363 601.795 234.059 601.035 233.754V225.425C601.643 225.654 602.44 225.882 603.428 226.11C604.415 226.338 605.516 226.452 606.731 226.452C608.478 226.452 609.845 225.958 610.832 224.969C611.743 224.056 612.199 222.573 612.199 220.519V203.177H621.198V219.949C621.198 224.817 620.135 228.544 618.008 231.13C615.806 233.792 612.427 235.124 607.87 235.124Z" fill="black"/>
<path d="M628.731 242.312C628.503 245.354 627.63 248.016 626.111 250.298C624.668 252.58 622.656 254.368 620.074 255.661C617.492 256.954 614.378 257.6 610.733 257.6C605.113 257.6 600.899 256.193 598.089 253.379C595.203 250.64 593.608 246.951 593.304 242.312H599.456C599.684 244.365 600.291 245.887 601.278 246.875C602.19 247.94 603.481 248.625 605.151 248.929C606.746 249.309 608.683 249.5 610.961 249.5C612.935 249.5 614.72 249.309 616.315 248.929C617.986 248.549 619.352 247.826 620.416 246.761C621.555 245.772 622.238 244.289 622.466 242.312H628.731Z" fill="black"/>
<path d="M636.814 276.882H585.781V269.58H636.814V276.882Z" fill="black"/>
<path d="M617.676 302.098C613.955 302.098 610.956 301.033 608.677 298.903C606.399 296.773 605.26 293.807 605.26 290.003C605.26 286.2 606.399 283.234 608.677 281.104C610.956 279.05 613.955 278.023 617.676 278.023V283.728C615.854 283.728 614.335 284.261 613.12 285.326C611.905 286.466 611.297 288.026 611.297 290.003C611.297 291.981 611.829 293.502 612.892 294.567C614.031 295.708 615.626 296.279 617.676 296.279V302.098Z" fill="black"/>
<path d="M606.616 321.95C605.629 320.201 604.3 318.299 602.629 316.245C600.959 314.268 599.212 312.29 597.389 310.312C595.567 308.335 593.972 306.623 592.605 305.178V303.695H599.44C601.414 304.988 603.465 306.547 605.591 308.373C607.717 310.198 609.73 312.138 611.628 314.192C613.679 312.138 615.767 310.198 617.894 308.373C620.02 306.547 622.07 304.988 624.045 303.695H631.107V305.178C629.665 306.623 627.994 308.335 626.095 310.312C624.273 312.29 622.488 314.268 620.741 316.245C619.071 318.299 617.78 320.201 616.868 321.95H606.616Z" fill="black"/>
<path d="M617.088 326.628C617.999 328.301 619.29 330.165 620.961 332.219C622.708 334.349 624.492 336.402 626.315 338.38C628.214 340.434 629.884 342.183 631.327 343.628V344.883H624.265C622.29 343.666 620.24 342.145 618.113 340.32C615.987 338.57 613.899 336.668 611.848 334.615C609.798 336.668 607.747 338.57 605.697 340.32C603.646 342.069 601.634 343.59 599.66 344.883H592.825V343.628C594.268 342.107 595.9 340.358 597.723 338.38C599.47 336.402 601.178 334.349 602.849 332.219C604.52 330.165 605.849 328.301 606.836 326.628H617.088Z" fill="black"/>
<path d="M612.757 349.904C613.592 351.577 614.617 353.441 615.832 355.494C617.123 357.624 618.452 359.678 619.819 361.655C621.262 363.633 622.553 365.344 623.692 366.79V368.159H616.972C615.681 367.094 614.238 365.801 612.643 364.28C611.048 362.834 609.491 361.275 607.973 359.602C606.378 358.004 604.973 356.445 603.758 354.924C602.467 353.402 601.479 352.109 600.796 351.045V349.904H612.757Z" fill="black"/>
<path d="M607.964 377.971V396.683H598.851V377.971H607.964ZM626.191 377.971V396.683H617.078V377.971H626.191Z" fill="black"/>
<path d="M608.984 419.958V408.549H600.783V401.703H624.704V408.549H616.503V419.958H608.984Z" fill="black"/>
<path d="M608.409 423.609V442.321H599.296V423.609H608.409ZM626.635 423.609V442.321H617.522V423.609H626.635Z" fill="black"/>
<path d="M577 120.572C577.835 122.245 578.898 124.147 580.189 126.276C581.404 128.33 582.733 130.346 584.176 132.323C585.543 134.301 586.796 136.013 587.935 137.458V138.827H581.215C579.924 137.762 578.481 136.507 576.886 135.062C575.291 133.54 573.734 131.981 572.215 130.384C570.621 128.71 569.216 127.113 568.001 125.592C566.71 124.071 565.722 122.777 565.039 121.713V120.572H577Z" fill="black"/>
<path d="M577 97.7525C577.835 99.4259 578.898 101.328 580.189 103.457C581.404 105.511 582.733 107.527 584.176 109.504C585.543 111.482 586.796 113.193 587.935 114.639V116.008H581.215C579.924 114.943 578.481 113.688 576.886 112.243C575.291 110.721 573.734 109.162 572.215 107.565C570.621 105.891 569.216 104.294 568.001 102.773C566.71 101.251 565.722 99.9584 565.039 98.8935V97.7525H577Z" fill="black"/>
<path d="M591.549 61.0138C594.662 61.0138 596.978 61.7364 598.497 63.1816C600.016 64.5507 600.776 66.7946 600.776 69.9132V85.8866H596.333V70.1414C596.333 68.2398 595.877 66.7946 594.966 65.8058C594.055 64.817 592.65 64.3225 590.751 64.3225C588.093 64.3225 586.195 65.0071 585.056 66.3763C583.916 67.7454 583.347 69.7611 583.347 72.4233V85.8866H578.904V70.1414C578.904 68.8483 578.714 67.7834 578.335 66.9467C577.879 66.11 577.234 65.4635 576.398 65.0071C575.563 64.5507 574.5 64.3225 573.209 64.3225C571.386 64.3225 569.943 64.6648 568.88 65.3494C567.817 66.034 567.057 67.0608 566.602 68.43C566.146 69.7231 565.918 71.3204 565.918 73.222V85.8866H561.362V61.4702H565.007L565.69 64.7789H565.918C566.526 63.9422 567.247 63.2577 568.083 62.7252C568.918 62.1167 569.867 61.6983 570.93 61.4702C571.918 61.1659 572.943 61.0138 574.006 61.0138C576.132 61.0138 577.917 61.3561 579.36 62.0406C580.727 62.6491 581.752 63.676 582.436 65.1212H582.663C583.651 63.676 584.904 62.6491 586.423 62.0406C588.017 61.3561 589.726 61.0138 591.549 61.0138Z" fill="black"/>
<path d="M602.019 36.141C601.411 37.1298 600.538 38.3848 599.399 39.9061C598.26 41.4274 596.931 43.0247 595.412 44.6981C593.969 46.3715 592.488 47.9689 590.969 49.4901C589.526 50.9353 588.159 52.1904 586.868 53.2553H581.173V51.8861C582.236 50.4409 583.375 48.7295 584.59 46.7518C585.805 44.7742 586.982 42.7585 588.121 40.7048C589.337 38.575 590.324 36.6734 591.083 35H602.019V36.141ZM581.97 36.141C581.363 37.1298 580.489 38.3848 579.35 39.9061C578.211 41.4274 576.92 43.0247 575.477 44.6981C573.958 46.3715 572.477 47.9689 571.035 49.4901C569.516 50.9353 568.111 52.1904 566.82 53.2553H561.124V51.8861C562.187 50.4409 563.326 48.7295 564.542 46.7518C565.757 44.7742 566.934 42.7585 568.073 40.7048C569.212 38.575 570.199 36.6734 571.035 35H581.97V36.141Z" fill="black"/>
<path d="M622.961 65.0071C622.277 67.6693 621.404 70.5598 620.341 73.6784C619.278 76.797 618.101 79.9156 616.81 83.0342C615.595 86.0768 614.379 88.9672 613.164 91.7055H605.76C606.292 89.5757 606.861 87.2938 607.469 84.8597C608 82.4257 608.532 79.9917 609.064 77.5576C609.519 75.0475 609.975 72.6135 610.43 70.2555C610.81 67.8975 611.152 65.7297 611.456 63.7521H622.164L622.961 65.0071Z" fill="black"/>
<path d="M629.969 127.76C629.286 130.422 628.412 133.312 627.349 136.431C626.286 139.55 625.109 142.668 623.818 145.787C622.603 148.829 621.388 151.72 620.173 154.458H612.768C613.3 152.328 613.87 150.046 614.477 147.612C615.009 145.178 615.54 142.744 616.072 140.31C616.528 137.8 616.983 135.366 617.439 133.008C617.818 130.65 618.16 128.482 618.464 126.505H629.172L629.969 127.76Z" fill="black"/>
<path d="M638.129 102.43H569.781V96.6116H638.129V102.43Z" fill="black"/>
<path d="M634.07 158.337C639.462 153.241 646.069 150.693 653.891 150.693C661.713 150.693 668.32 153.241 673.712 158.337C679.104 163.433 681.799 170.622 681.799 179.901C681.799 189.181 679.104 196.331 673.712 201.351C668.32 206.371 661.713 208.882 653.891 208.882C646.069 208.882 639.462 206.371 634.07 201.351C628.678 196.331 625.982 189.181 625.982 179.901C625.982 170.622 628.678 163.433 634.07 158.337ZM666.991 164.156C663.649 160.429 659.283 158.565 653.891 158.565C648.499 158.565 644.094 160.429 640.677 164.156C637.336 167.807 635.665 173.056 635.665 179.901C635.665 186.671 637.336 191.919 640.677 195.646C644.094 199.298 648.499 201.123 653.891 201.123C659.283 201.123 663.649 199.298 666.991 195.646C670.408 191.919 672.117 186.671 672.117 179.901C672.117 173.056 670.408 167.807 666.991 164.156Z" fill="black"/>
<path d="M695.152 127.76C694.469 130.422 693.595 133.312 692.532 136.431C691.469 139.55 690.292 142.668 689.001 145.787C687.786 148.829 686.571 151.72 685.356 154.458H677.951C678.483 152.328 679.053 150.046 679.66 147.612C680.192 145.178 680.723 142.744 681.255 140.31C681.71 137.8 682.166 135.366 682.622 133.008C683.002 130.65 683.343 128.482 683.647 126.505H694.355L695.152 127.76Z" fill="black"/>
<path d="M688.203 95.2424C691.469 95.2424 693.899 95.889 695.494 97.182C697.165 98.4751 698 100.567 698 103.457V120.115H694.697L693.899 116.692H693.671C692.836 117.529 692.001 118.252 691.165 118.86C690.33 119.469 689.381 119.925 688.317 120.229C687.254 120.458 685.963 120.572 684.444 120.572C682.774 120.572 681.293 120.305 680.002 119.773C678.711 119.241 677.686 118.442 676.926 117.377C676.167 116.312 675.787 114.943 675.787 113.27C675.787 110.835 676.85 108.972 678.977 107.679C681.103 106.31 684.406 105.587 688.887 105.511L693.557 105.397V103.914C693.557 101.86 693.064 100.453 692.077 99.6921C691.089 98.8554 689.684 98.4371 687.862 98.4371C686.419 98.4371 685.052 98.6273 683.761 99.0076C682.47 99.3879 681.255 99.8443 680.116 100.377L678.749 97.2961C679.964 96.7637 681.407 96.3073 683.077 95.927C684.672 95.4706 686.381 95.2424 688.203 95.2424ZM689.457 108.249C686.039 108.401 683.685 108.896 682.394 109.733C681.103 110.569 680.457 111.786 680.457 113.384C680.457 114.753 680.913 115.78 681.824 116.464C682.736 117.073 683.951 117.377 685.47 117.377C687.748 117.377 689.646 116.806 691.165 115.666C692.76 114.525 693.557 112.737 693.557 110.303V108.135L689.457 108.249Z" fill="black"/>
</g>
<defs>
<clipPath id="clip0_4_5">
<rect width="800" height="301" fill="white"/>
</clipPath>
</defs>
</svg>
